Coordinates
version=1
nRows=26
nColumns=24
inDegrees=yes

Units are S.I. units (second, meters, Newtons, ...)
Angles are in degrees.

endheader
time	pelvis_tilt	pelvis_list	pelvis_rotation	pelvis_tx	pelvis_ty	pelvis_tz	hip_flexion_r	hip_adduction_r	hip_rotation_r	knee_angle_r	ankle_angle_r	subtalar_angle_r	mtp_angle_r	hip_flexion_l	hip_adduction_l	hip_rotation_l	knee_angle_l	ankle_angle_l	subtalar_angle_l	mtp_angle_l	lumbar_extension	lumbar_bending	lumbar_rotation
      1.02900000	     -0.16557736	     -2.65192576	     -3.42108874	     -0.18627612	      0.98001130	      0.33099135	    -14.15041794	      6.38207473	     -1.59934694	     -8.63820293	     14.47717076	     -6.23384181	     -1.74726370	     22.75133598	     -1.82500027	     -4.07554731	      0.10054196	     -0.59307487	     -2.16258326	      1.64088678	     -2.27521376	      5.49299507	      6.81891161
      1.03316667	     -0.19435292	     -2.59020903	     -3.49312237	     -0.18043432	      0.97940570	      0.33072547	    -14.18161735	      6.24035572	     -1.59575879	     -9.21040432	     14.58865743	     -6.14596355	     -1.77003787	     22.71283823	     -1.71687255	     -4.17727365	      0.14789574	     -0.84267921	     -2.39673584	      1.69438394	     -2.23218007	      5.42683297	      6.87019512
      1.03733333	     -0.21588604	     -2.50584440	     -3.55064259	     -0.17457794	      0.97889559	      0.33046032	    -14.20186841	      6.07708422	     -1.61957458	     -9.80850151	     14.62685668	     -6.07141741	     -1.79003115	     22.67318425	     -1.58729057	     -4.29068098	      0.09529227	     -1.11910091	     -2.66499779	      1.76080292	     -2.17740415	      5.31738172	      6.89342861
      1.04150000	     -0.23229593	     -2.41652753	     -3.60041539	     -0.16866438	      0.97844046	      0.33021241	    -14.23587905	      5.91689355	     -1.58535514	    -10.38561373	     14.56392323	     -6.12833279	     -1.79508088	     22.65357715	     -1.45539246	     -4.45632607	     -0.07673066	     -1.37841826	     -2.82666868	      1.78199359	     -2.11665111	      5.18495995	      6.88070330
      1.04566667	     -0.27367549	     -2.30964239	     -3.64470362	     -0.16274811	      0.97798679	      0.32992140	    -14.20472804	      5.73527036	     -1.56840968	    -11.03905747	     14.56247622	     -6.15021698	     -1.79288452	     22.66460560	     -1.30217713	     -4.54280655	     -0.30723132	     -1.73236637	     -3.10514408	      1.82327138	     -2.04427047	      5.05238887	      6.89035917
      1.04983333	     -0.32690222	     -2.23621074	     -3.66870284	     -0.15685213	      0.97755253	      0.32958305	    -14.12632663	      5.58814135	     -1.60639226	    -11.75349163	     14.52546134	     -6.07429410	     -1.76876053	     22.70335222	     -1.17395791	     -4.50621285	     -0.61410521	     -2.13447206	     -3.60605844	      1.94343527	     -1.95167586	      4.97207147	      6.91302086
      1.05400000	     -0.35713176	     -2.13725534	     -3.68021515	     -0.15089409	      0.97720582	      0.32924759	    -14.07503903	      5.42139128	     -1.60989396	    -12.45932005	     14.43584696	     -6.11512337	     -1.73093954	     22.73873152	     -1.02167914	     -4.53020414	     -1.01109660	     -2.56601974	     -3.97875312	      2.06295403	     -1.87833335	      4.84185314	      6.89663003
      1.05816667	     -0.42552269	     -2.04515804	     -3.68983041	     -0.14492857	      0.97685884	      0.32890097	    -13.95040111	      5.26372455	     -1.61017945	    -13.22361609	     14.29227953	     -6.17940422	     -1.66983440	     22.82451204	     -0.87939314	     -4.50316580	     -1.46826706	     -3.01033164	     -4.39806009	      2.20695292	     -1.75762039	      4.72462973	      6.87872064
      1.06233333	     -0.44217731	     -1.91744039	     -3.68475913	     -0.13889498	      0.97662792	      0.32854870	    -13.87579967	      5.07014376	     -1.61482585	    -13.99186296	     14.07686418	     -6.30356786	     -1.63530703	     22.86557577	     -0.69971027	     -4.52946565	     -1.98475889	     -3.44976230	     -4.67345479	      2.27517830	     -1.69146802	      4.55075233	      6.85277555
      1.06650000	     -0.52710306	     -1.83977421	     -3.65510539	     -0.13291516	      0.97633789	      0.32813297	    -13.68861092	      4.93835550	     -1.63303103	    -14.83112363	     13.89863488	     -6.37104955	     -1.53044537	     22.99583048	     -0.55809592	     -4.38747570	     -2.55193824	     -3.98728620	     -5.24577988	      2.43888370	     -1.54773683	      4.46079590	      6.81626067
      1.07066667	     -0.54442007	     -1.70438971	     -3.63103684	     -0.12683072	      0.97620070	      0.32774392	    -13.56043639	      4.73809179	     -1.66621747	    -15.68930323	     13.58160418	     -6.51878336	     -1.46773059	     23.04607088	     -0.36632396	     -4.36070884	     -3.14083225	     -4.45986772	     -5.54759923	      2.52742235	     -1.46690329	      4.26584255	      6.77956640
      1.07483333	     -0.63839753	     -1.63200843	     -3.57780278	     -0.12082089	      0.97598774	      0.32727739	    -13.31135118	      4.61716534	     -1.69144629	    -16.61402299	     13.30876986	     -6.61519052	     -1.29570405	     23.19800514	     -0.22236534	     -4.15067297	     -3.77752875	     -5.02287094	     -6.14926678	      2.73015317	     -1.31085635	      4.18823070	      6.71276908
      1.07900000	     -0.64856275	     -1.47929756	     -3.52630610	     -0.11468061	      0.97594440	      0.32683259	    -13.14215070	      4.40062028	     -1.75491895	    -17.54740341	     12.89157666	     -6.78780108	     -1.20135626	     23.25263899	     -0.00390555	     -4.09509197	     -4.43125947	     -5.49714760	     -6.43507603	      2.83065137	     -1.23179481	      3.97640146	      6.66852730
      1.08316667	     -0.74945508	     -1.40202432	     -3.45686303	     -0.10863642	      0.97581195	      0.32631917	    -12.82571795	      4.27390954	     -1.79859179	    -18.56674527	     12.50100123	     -6.89956042	     -0.95548041	     23.41405941	      0.15165368	     -3.84601211	     -5.10575089	     -6.05602415	     -7.02315120	      3.05077779	     -1.06146319	      3.89925468	      6.57802936
      1.08733333	     -0.79575806	     -1.27390759	     -3.37689841	     -0.10250875	      0.97579502	      0.32579511	    -12.55001232	      4.08672188	     -1.88244315	    -19.60644510	     12.00050141	     -7.03563224	     -0.62972411	     23.50621520	      0.36242518	     -3.65256370	     -5.77858526	     -6.57221558	     -7.47569918	      3.30505386	     -0.94502024	      3.73970324	      6.48759111
      1.09150000	     -0.84990876	     -1.15011233	     -3.29094380	     -0.09636767	      0.97581275	      0.32525390	    -12.23317837	      3.90216426	     -1.97552818	    -20.69556460	     11.44785566	     -7.17711969	     -0.22462573	     23.61445384	      0.56812219	     -3.47103326	     -6.48240896	     -7.03866358	     -7.88579878	      3.57496746	     -0.80894226	      3.57668191	      6.40073039
      1.09566667	     -0.78912045	     -0.97958330	     -3.16626070	     -0.09013899	      0.97599976	      0.32463360	    -12.03375371	      3.64713068	     -2.18633046	    -21.76587290	     10.68112848	     -7.30789090	      5.72860834	     23.58653659	      0.84238345	     -3.29798217	     -7.17096944	     -7.47530043	     -8.27733005	      6.81313935	     -0.81195339	      3.35227532	      6.33651334
      1.09983333	     -0.85133036	     -0.84252450	     -3.09637321	     -0.08397592	      0.97609281	      0.32410696	    -11.63994175	      3.44522176	     -2.23460561	    -22.95802198	     10.03689372	     -7.53886701	      5.79462132	     23.69792246	      1.04847438	     -3.18416289	     -7.89071142	     -7.85844248	     -8.53686948	      6.77254514	     -0.66319445	      3.18114681	      6.24350890
      1.10400000	     -0.87233855	     -0.69572147	     -2.98844792	     -0.07778816	      0.97626365	      0.32350834	    -11.27085806	      3.22748819	     -2.35169631	    -24.16487148	      9.27233360	     -7.69711378	      5.89953043	     23.75426748	      1.28785983	     -2.99598381	     -8.59981058	     -8.17471997	     -8.84187009	      6.73637487	     -0.56524007	      2.99436720	      6.14944342
      1.10816667	     -0.86885787	     -0.53301996	     -2.87310163	     -0.07158043	      0.97649285	      0.32287519	    -10.89915892	      2.98281135	     -2.49348047	    -25.40970469	      8.44738106	     -7.83227324	      6.03237497	     23.77151367	      1.54842071	     -2.81345158	     -9.29392596	     -8.43797497	     -9.13227544	      6.70328208	     -0.49263573	      2.79190661	      6.05345915
      1.11233333	     -0.86460812	     -0.35256029	     -2.74742694	     -0.06537894	      0.97673884	      0.32218035	    -10.48931326	      2.69987801	     -2.69090401	    -26.70166581	      7.52881776	     -7.94327181	     10.87144078	     23.78197764	      1.83967281	     -2.60463807	     -9.98433063	     -8.66126415	     -9.50372399	      5.84141283	     -0.42784632	      2.56861211	      5.94225416
      1.11650000	     -0.82253305	     -0.16637441	     -2.62741205	     -0.05914889	      0.97708898	      0.32153848	    -10.10863146	      2.42169030	     -2.82962584	    -28.00134851	      6.55173878	     -8.12341923	     10.88161988	     23.74352217	      2.12392644	     -2.46898417	    -10.67766492	     -8.76988810	     -9.67523503	      5.84493398	     -0.40061818	      2.32338976	      5.87137309
      1.12066667	     -0.83369876	     -0.00787176	     -2.50445843	     -0.05296082	      0.97739068	      0.32084152	     -9.62370789	      2.16127328	     -2.98665480	    -29.36684110	      5.47945791	     -8.22081875	     10.94395775	     23.73067720	      2.39081013	     -2.24639230	    -11.30601784	     -8.89548725	     -9.95013663	      5.84138627	     -0.30020812	      2.15144859	      5.75000080
      1.12483333	     -0.81127764	      0.17518483	     -2.37458165	     -0.04678473	      0.97775320	      0.32012748	     -9.14967285	      1.86702658	     -3.15211122	    -30.75915659	      4.37934971	     -8.32286204	     11.03606108	     23.67798357	      2.68659517	     -2.05546388	    -11.93581943	     -8.94355518	    -10.20093048	      5.82958363	     -0.25301588	      1.92729829	      5.63900509
      1.12900000	     -0.80191029	      0.35846782	     -2.23437269	     -0.04063564	      0.97811457	      0.31938305	     -8.63713507	      1.56806298	     -3.32075955	    -32.17312982	      3.21438506	     -8.39400293	     11.22813263	     23.63576981	      2.98963284	     -1.85483387	    -12.56478568	     -8.96363119	    -10.51241594	      5.79564146	     -0.19674602	      1.70570107	      5.49967963
      1.13316667	     -0.76713990	      0.55349857	     -2.10236959	     -0.03448859	      0.97854229	      0.31863812	     -8.12780460	      1.24578392	     -3.48450581	    -33.60767805	      1.96892185	     -8.48920721	     11.44452184	     23.53281966	      3.30248221	     -1.67168034	    -13.13703322	     -8.90596360	    -10.73381968	      5.74897828	     -0.16445542	      1.47541949	      5.38875632
